<?xml version="1.0" encoding="UTF-8" standalone="no"?>
<!-- Generator: Adobe Illustrator 19.0.0, SVG Export Plug-In . SVG Version: 6.00 Build 0)  -->

<svg
   version="1.1"
   id="Layer_1"
   x="0px"
   y="0px"
   viewBox="0 0 2360 1180"
   xml:space="preserve"
   sodipodi:docname="logo.svg"
   inkscape:version="1.2.1 (9c6d41e410, 2022-07-14)"
   width="2360"
   height="1180"
   xmlns:inkscape="http://www.inkscape.org/namespaces/inkscape"
   xmlns:sodipodi="http://sodipodi.sourceforge.net/DTD/sodipodi-0.dtd"
   xmlns="http://www.w3.org/2000/svg"
   xmlns:svg="http://www.w3.org/2000/svg"><defs
   id="defs559" /><sodipodi:namedview
   id="namedview557"
   pagecolor="#ffffff"
   bordercolor="#000000"
   borderopacity="0.25"
   inkscape:showpageshadow="2"
   inkscape:pageopacity="0.0"
   inkscape:pagecheckerboard="0"
   inkscape:deskcolor="#d1d1d1"
   showgrid="false"
   inkscape:zoom="0.25073242"
   inkscape:cx="1042.9445"
   inkscape:cy="1116.7283"
   inkscape:window-width="1908"
   inkscape:window-height="1015"
   inkscape:window-x="26"
   inkscape:window-y="23"
   inkscape:window-maximized="0"
   inkscape:current-layer="g1095" />

<g
   id="g526"
   transform="translate(1727.1515,-64.682792)">
</g>
<g
   id="g528"
   transform="translate(1727.1515,-64.682792)">
</g>
<g
   id="g530"
   transform="translate(1727.1515,-64.682792)">
</g>
<g
   id="g532"
   transform="translate(1727.1515,-64.682792)">
</g>
<g
   id="g534"
   transform="translate(1727.1515,-64.682792)">
</g>
<g
   id="g536"
   transform="translate(1727.1515,-64.682792)">
</g>
<g
   id="g538"
   transform="translate(1727.1515,-64.682792)">
</g>
<g
   id="g540"
   transform="translate(1727.1515,-64.682792)">
</g>
<g
   id="g542"
   transform="translate(1727.1515,-64.682792)">
</g>
<g
   id="g544"
   transform="translate(1727.1515,-64.682792)">
</g>
<g
   id="g546"
   transform="translate(1727.1515,-64.682792)">
</g>
<g
   id="g548"
   transform="translate(1727.1515,-64.682792)">
</g>
<g
   id="g550"
   transform="translate(1727.1515,-64.682792)">
</g>
<g
   id="g552"
   transform="translate(1727.1515,-64.682792)">
</g>
<g
   id="g554"
   transform="translate(1727.1515,-64.682792)">
</g>
<g
   id="g1095"
   transform="matrix(1.030843,0,0,1.030843,1769.5139,-42.374286)"><g
     id="g5392"
     transform="matrix(1.4553089,0,0,1.4553089,-134.70904,276.28012)"><g
       style="clip-rule:evenodd;fill-rule:evenodd;stroke-linejoin:round;stroke-miterlimit:1.41421"
       id="g1031"
       transform="matrix(0.06506351,0,0,0.06506351,62.315212,110.48705)"><g
         transform="matrix(4.5441201,0,0,4.5441201,-200.01195,85.302391)"
         id="g1007">
        <path
   d="m 525.403,293.05 c -131.633,0 -251.228,15.825 -339.77,41.615 v 220.298 c 88.542,25.79 208.137,41.614 339.77,41.614 150.657,0 285.535,-20.729 376.134,-53.402 V 346.457 C 810.938,313.781 676.06,293.05 525.403,293.05 Z"
   style="fill:#8f1e1c;fill-rule:nonzero"
   id="path977" />
        <path
   d="m 907.423,492.442 c -3.857,-10.663 -4.629,-24.154 -1.361,-37.162 5.85,-23.289 22.421,-36.198 37.013,-28.833 3.618,1.827 6.774,4.731 9.387,8.418 0.239,-0.001 0.478,0 0.715,0.016 0,0 44.552,53.106 3.313,116.003 -0.895,3.569 -76.534,91.718 -94.043,94.524 -11.46,1.836 14.891,-89.998 44.976,-152.966 z"
   style="fill:#8f1e1c;fill-rule:nonzero"
   id="path979" />
        <path
   d="m 176.479,482.021 c 5.3,-9.63 7.158,-22.788 4.217,-36.425 -5.266,-24.416 -23.91,-41.11 -41.642,-37.285 -4.398,0.948 -8.325,3.072 -11.666,6.098 -0.282,-0.058 -0.564,-0.113 -0.845,-0.153 0,0 -56.292,41.952 -12.057,113.924 0.805,3.741 83.851,108.838 104.311,115.763 13.391,4.532 -11.247,-92.525 -42.318,-161.922 z"
   style="fill:#8f1e1c;fill-rule:nonzero"
   id="path981" />
        <path
   d="m 97.467,488.066 0.007,0.015 c 0.185,0.145 0.357,0.276 -0.007,-0.015 z"
   style="fill:#e33a25;fill-rule:nonzero"
   id="path983" />
        <path
   d="m 993.119,412.903 c -0.88,-3.064 -1.756,-6.126 -2.662,-9.162 l 30.683,-44.451 c 3.13,-4.522 3.77,-10.398 1.73,-15.555 -2.04,-5.13 -6.49,-8.81 -11.76,-9.71 l -51.886,-8.805 c -2.008,-4.102 -4.116,-8.142 -6.23,-12.15 l 21.797,-49.903 c 2.243,-5.087 1.769,-10.995 -1.203,-15.608 -2.961,-4.636 -7.99,-7.344 -13.349,-7.133 l -52.656,1.913 c -2.727,-3.55 -5.496,-7.068 -8.322,-10.521 l 12.101,-53.49 c 1.225,-5.433 -0.322,-11.118 -4.103,-15.064 -3.762,-3.932 -9.229,-5.559 -14.426,-4.283 l -51.289,12.608 c -3.321,-2.935 -6.699,-5.833 -10.114,-8.673 l 1.848,-54.914 c 0.198,-5.559 -2.393,-10.841 -6.844,-13.925 -4.446,-3.104 -10.093,-3.573 -14.956,-1.266 l -47.847,22.747 c -3.854,-2.21 -7.728,-4.4 -11.644,-6.517 l -8.455,-54.115 c -0.857,-5.482 -4.385,-10.138 -9.326,-12.265 -4.923,-2.138 -10.568,-1.448 -14.891,1.808 l -42.659,32.007 c -4.2,-1.396 -8.419,-2.733 -12.692,-4.011 L 645.578,21.148 c -1.87,-5.229 -6.181,-9.071 -11.438,-10.151 -5.239,-1.071 -10.63,0.743 -14.263,4.802 L 583.97,55.971 c -4.342,-0.5 -8.685,-0.956 -13.043,-1.332 L 543.204,7.926 c -2.81,-4.732 -7.77,-7.612 -13.116,-7.612 -5.334,0 -10.304,2.88 -13.09,7.612 l -27.733,46.713 c -4.358,0.376 -8.722,0.832 -13.056,1.332 l -35.91,-40.172 c -3.636,-4.059 -9.047,-5.873 -14.268,-4.802 -5.255,1.092 -9.573,4.922 -11.433,10.151 l -18.402,51.317 c -4.26,1.278 -8.481,2.627 -12.691,4.011 L 340.861,44.469 c -4.336,-3.266 -9.98,-3.955 -14.916,-1.808 -4.919,2.127 -8.461,6.783 -9.313,12.265 l -8.461,54.115 c -3.914,2.117 -7.789,4.294 -11.653,6.517 L 248.676,92.811 c -4.858,-2.315 -10.529,-1.838 -14.954,1.266 -4.445,3.084 -7.042,8.366 -6.84,13.925 l 1.835,54.914 c -3.405,2.84 -6.774,5.738 -10.112,8.673 l -51.279,-12.608 c -5.211,-1.265 -10.67,0.351 -14.441,4.283 -3.795,3.946 -5.332,9.631 -4.113,15.064 l 12.079,53.49 c -2.802,3.467 -5.575,6.971 -8.293,10.521 l -52.655,-1.913 c -5.315,-0.157 -10.387,2.497 -13.356,7.133 -2.975,4.613 -3.425,10.521 -1.211,15.608 l 21.814,49.903 c -2.119,4.008 -4.224,8.048 -6.249,12.15 l -51.883,8.805 c -5.271,0.888 -9.714,4.566 -11.764,9.71 -2.037,5.157 -1.376,11.033 1.735,15.555 l 30.69,44.451 c -0.237,0.784 -0.455,1.576 -0.69,2.364 l -16.863,17.912 45.341,64.049 c 0,0 435.152,200.732 838.797,3.396 46.108,-8.273 56.855,-78.559 56.855,-78.559 z"
   style="fill:#e43a25;fill-rule:nonzero"
   id="path985" />
        <path
   d="m 608.303,376.759 c 0,0 48.157,-52.729 96.315,0 0,0 37.84,70.312 0,105.463 0,0 -61.917,49.217 -96.315,0 0,0 -41.279,-38.672 0,-105.463 z"
   style="fill:#030404;fill-rule:nonzero"
   id="path987" />
        <path
   d="m 664.057,396.32 c 0,20.533 -12.103,37.179 -27.03,37.179 -14.924,0 -27.027,-16.646 -27.027,-37.179 0,-20.532 12.103,-37.18 27.027,-37.18 14.927,0 27.03,16.648 27.03,37.18 z"
   style="fill:#ffffff;fill-rule:nonzero"
   id="path989" />
        <path
   d="m 393.365,362.361 c 0,0 82.608,-36.576 105.154,45.062 0,0 23.618,95.154 -67.837,100.525 0,0 -116.622,-22.462 -37.317,-145.587 z"
   style="fill:#030404;fill-rule:nonzero"
   id="path991" />
        <path
   d="m 434.855,397.668 c 0,21.173 -12.48,38.346 -27.877,38.346 -15.391,0 -27.874,-17.173 -27.874,-38.346 0,-21.178 12.483,-38.346 27.874,-38.346 15.397,0 27.877,17.168 27.877,38.346 z"
   style="fill:#ffffff;fill-rule:nonzero"
   id="path993" />
        <path
   d="m 111.602,499.216 c 10.967,-12.463 37.611,-27.557 35.57,-46.282 -3.653,-33.527 -31.456,-57.999 -62.099,-54.659 -7.6,0.828 -14.658,3.292 -20.924,7.036 -0.462,-0.107 -0.925,-0.211 -1.388,-0.294 0,0 -103.631,50.873 -44.564,152.657 0.557,5.137 117.848,155.668 150.788,167.131 21.559,7.502 -19.911,-128.64 -57.383,-225.589 z"
   style="fill:#e43a25;fill-rule:nonzero"
   id="path995" />
        <path
   d="m 953.549,494.673 c -12.693,-10.7 -46.162,-20.418 -46.92,-39.238 -1.356,-33.698 22.512,-62.021 53.312,-63.26 7.638,-0.308 14.984,1.083 21.735,3.857 0.442,-0.174 0.884,-0.346 1.329,-0.497 0,0 110.025,34.951 66.695,144.366 0.21,5.163 -93.468,171.416 -124.345,187.635 -20.209,10.615 5.506,-131.431 28.194,-232.863 z"
   style="fill:#e43a25;fill-rule:nonzero"
   id="path997" />
        <path
   d="m 191.142,495.558 c 0,0 -1.383,137.296 133.166,167.932 l 28.054,-56.363 c 0,0 -97.495,9.431 -104.995,-111.569 z"
   style="fill:#e43a25;fill-rule:nonzero"
   id="path999" />
        <path
   d="m 876.362,495.558 c 0,0 1.382,137.296 -133.167,167.932 l -28.054,-56.363 c 0,0 97.495,9.431 104.995,-111.569 z"
   style="fill:#e43a25;fill-rule:nonzero"
   id="path1001" />
        <path
   d="m 779.167,635.591 c -20.25,-48.942 -85.595,-68.373 -145.951,-43.4 -53.126,21.981 -84.637,71.032 -77.624,115.845 41.946,-0.652 86.94,-3.371 130.736,-9.718 0,0 -25.837,41.763 -63.857,78.211 25.566,6.599 55.383,4.768 84.076,-7.104 60.357,-24.973 92.87,-84.893 72.62,-133.834 z"
   style="fill:#e43a25;fill-rule:nonzero"
   id="path1003" />
        <path
   d="m 404.746,695.984 c 0,0 55.203,7.295 130.67,9.156 6.61,-47.511 -29.38,-97.792 -86.801,-117.243 -63.438,-21.488 -128.989,2.792 -146.414,54.232 -17.425,51.44 19.876,110.56 83.314,132.049 28.121,9.526 56.653,10.049 81.229,3.207 -36.911,-36.505 -61.998,-81.401 -61.998,-81.401 z"
   style="fill:#e43a25;fill-rule:nonzero"
   id="path1005" />
    </g></g><g
       id="g1039"
       transform="matrix(1.0051,0,0,1.0051,-2.3315724,-2.463461)">
	<g
   id="g1037">
		<path
   d="m 207.0989,-17.108589 c -64.52161,0 -125.810611,24.5928471 -172.580162,69.250501 -46.609109,44.503154 -74.020988,104.291118 -77.182298,168.348038 -0.160442,3.24926 1.018512,6.42245 3.26114,8.78036 2.245005,2.35672 5.356399,3.69017 8.60922,3.69017 h 53.731562 c 6.269138,0 11.461529,-4.87031 11.859664,-11.12638 5.788999,-90.57745 81.472644,-161.528642 172.302064,-161.528642 95.20176,0 172.65383,77.453262 172.65383,172.655022 0,95.20176 -77.45207,172.65503 -172.65383,172.65503 -21.52187,0 -42.51367,-3.90647 -62.39546,-11.61246 l 20.63884,-18.33203 c 3.19221,-2.79764 4.64926,-7.08799 3.82328,-11.25236 -0.82717,-4.16675 -3.81377,-7.57169 -7.83434,-8.93842 L 27.03618,316.79342 c -4.025321,-1.36555 -8.464227,-0.48371 -11.658814,2.31512 -3.192209,2.79764 -4.650452,7.0868 -3.824471,11.25117 l 28.471988,131.66853 c 0.827169,4.16556 3.813775,7.57289 7.833154,8.93843 4.020567,1.36316 8.464227,0.48489 11.658813,-2.31275 l 22.104208,-19.36956 c 37.966612,22.0745 81.357372,33.7452 125.479032,33.7452 137.88656,0 250.06907,-112.18132 250.06907,-250.06908 0,-137.888938 -112.18251,-250.069069 -250.07026,-250.069069 z"
   id="path1033"
   style="fill:#316cd8;fill-opacity:1;stroke-width:1.18846" />
		
	</g>
</g></g><g
     id="g1041">
</g><g
     id="g1043">
</g><g
     id="g1045">
</g><g
     id="g1047">
</g><g
     id="g1049">
</g><g
     id="g1051">
</g><g
     id="g1053">
</g><g
     id="g1055">
</g><g
     id="g1057">
</g><g
     id="g1059">
</g><g
     id="g1061">
</g><g
     id="g1063">
</g><g
     id="g1065">
</g><g
     id="g1067">
</g><g
     id="g1069">
</g><g
     id="g5446"
     transform="matrix(0.81044888,0,0,0.82431349,-288.8697,204.03468)"
     style="fill:#e43a25;fill-opacity:1"><path
       d="m -1567.9431,110.80213 q 30.6193,0 51.9911,8.21994 21.5774,8.01444 39.4557,22.81032 l -33.0852,39.8667 q -11.7134,-9.65842 -25.8928,-15.20688 -14.1794,-5.75396 -30.8248,-5.75396 -17.8784,0 -32.6743,10.27492 -14.7958,10.06943 -23.6323,32.05776 -8.8364,21.78284 -8.8364,56.71758 0,51.37461 18.4949,74.80144 18.7003,23.22132 47.8811,23.22132 21.3718,0 35.5512,-8.01444 14.1794,-8.01444 26.0983,-17.46736 l 30.6193,39.0447 q -16.0289,15.82338 -39.4557,27.1258 -23.4268,11.30241 -56.5121,11.30241 -38.6337,0 -68.6365,-17.05637 -29.7972,-17.26187 -46.8536,-50.55262 -16.8509,-33.49625 -16.8509,-82.40488 0,-47.67564 17.4674,-80.96639 17.6729,-33.29075 47.8811,-50.55262 30.2083,-17.46737 67.8145,-17.46737 z"
       style="font-weight:bold;font-size:400.722px;font-family:'FiraCode Nerd Font Mono';-inkscape-font-specification:'FiraCode Nerd Font Mono, Bold';fill:#e43a25;fill-opacity:1;stroke-width:4.88783"
       id="path5394" /><path
       d="m -1437.6569,402.81544 v -43.56568 h 28.7698 V 227.73075 h -28.7698 v -43.15468 h 78.2949 l 11.9189,49.11414 q 11.7134,-28.15329 29.7973,-41.92169 18.2894,-13.7684 44.5932,-13.7684 11.0969,0 19.7278,1.84949 8.631,1.64399 16.2344,4.72646 l -12.1244,91.24132 h -40.6887 v -40.2777 q -18.4949,3.28798 -32.4688,20.13885 -13.9738,16.64538 -21.5773,41.09969 v 62.47153 h 43.1547 v 43.56568 z"
       style="font-weight:bold;font-size:400.722px;font-family:'FiraCode Nerd Font Mono';-inkscape-font-specification:'FiraCode Nerd Font Mono, Bold';fill:#e43a25;fill-opacity:1;stroke-width:4.88783"
       id="path5396" /><path
       d="m -1009.3979,339.93291 q 0,12.32991 3.288,17.87836 3.4934,5.54846 11.0969,8.42544 l -13.3574,42.74368 q -19.3169,-1.84949 -32.6743,-8.42544 -13.1519,-6.78145 -20.7553,-20.34434 -12.5354,15.00138 -32.0578,22.39933 -19.5223,7.19244 -39.8667,7.19244 -33.7017,0 -53.8406,-19.11135 -19.9333,-19.31686 -19.9333,-49.52513 0,-35.55123 27.7423,-54.86809 27.9477,-19.31685 78.5004,-19.31685 h 29.3862 v -8.21994 q 0,-33.49625 -43.1546,-33.49625 -10.4804,0 -26.9203,3.08248 -16.4399,2.87698 -32.8798,8.42543 l -15.0014,-43.15468 q 21.1664,-8.01443 43.9767,-12.1244 23.0158,-4.10997 41.0997,-4.10997 48.7031,0 71.9245,19.93335 23.4268,19.72785 23.4268,57.12857 z m -101.9273,23.42682 q 10.4805,0 21.9884,-6.16495 11.5079,-6.37045 17.4673,-17.87837 v -35.34573 h -16.0288 q -27.1258,0 -39.8667,8.42544 -12.7409,8.21993 -12.7409,24.24881 0,12.53541 7.6034,19.72785 7.8089,6.98695 21.5773,6.98695 z"
       style="font-weight:bold;font-size:400.722px;font-family:'FiraCode Nerd Font Mono';-inkscape-font-specification:'FiraCode Nerd Font Mono, Bold';fill:#e43a25;fill-opacity:1;stroke-width:4.88783"
       id="path5398" /><path
       d="m -881.5777,206.9754 q 10.27492,-13.56289 24.65981,-21.57733 14.59039,-8.01444 31.23577,-8.01444 42.12718,0 61.23854,31.23576 19.31685,31.23577 19.31685,84.45987 0,33.70175 -10.06942,60.21105 -9.86393,26.3038 -29.38628,41.51069 -19.52235,15.00138 -47.88114,15.00138 -34.31824,0 -54.04609,-26.7148 l -2.46599,19.72786 h -57.53956 V 97.855726 l 64.93751,-6.781449 z m 32.05776,155.56234 q 17.26187,0 27.33129,-15.82338 10.06943,-16.02888 10.06943,-52.81311 0,-27.12579 -4.31547,-41.92168 -4.10997,-15.00139 -11.91891,-20.75534 -7.60344,-5.95946 -17.87837,-5.95946 -10.89142,0 -19.52235,6.78145 -8.63094,6.78145 -15.82338,18.49486 v 92.06331 q 6.16495,9.65843 13.7684,14.79589 7.60344,5.13746 18.28936,5.13746 z"
       style="font-weight:bold;font-size:400.722px;font-family:'FiraCode Nerd Font Mono';-inkscape-font-specification:'FiraCode Nerd Font Mono, Bold';fill:#e43a25;fill-opacity:1;stroke-width:4.88783"
       id="path5400" /><path
       d="m -634.97937,206.9754 q 10.27492,-13.56289 24.65981,-21.57733 14.59039,-8.01444 31.23577,-8.01444 42.12718,0 61.23854,31.23576 19.31685,31.23577 19.31685,84.45987 0,33.70175 -10.06942,60.21105 -9.86393,26.3038 -29.38628,41.51069 -19.52236,15.00138 -47.88114,15.00138 -34.31824,0 -54.0461,-26.7148 l -2.46598,19.72786 h -57.53957 V 97.855726 l 64.93752,-6.781449 z m 32.05776,155.56234 q 17.26187,0 27.33129,-15.82338 10.06942,-16.02888 10.06942,-52.81311 0,-27.12579 -4.31546,-41.92168 -4.10997,-15.00139 -11.91891,-20.75534 -7.60345,-5.95946 -17.87837,-5.95946 -10.89142,0 -19.52235,6.78145 -8.63094,6.78145 -15.82338,18.49486 v 92.06331 q 6.16495,9.65843 13.76839,14.79589 7.60345,5.13746 18.28937,5.13746 z"
       style="font-weight:bold;font-size:400.722px;font-family:'FiraCode Nerd Font Mono';-inkscape-font-specification:'FiraCode Nerd Font Mono, Bold';fill:#e43a25;fill-opacity:1;stroke-width:4.88783"
       id="path5402" /><path
       d="m -246.99805,184.57607 -72.74645,218.23937 q -14.38489,43.36017 -43.56567,65.965 -28.97529,22.60483 -78.70591,25.48181 l -7.39795,-45.82616 q 21.57734,-2.67148 34.72924,-8.01444 13.3574,-5.34296 21.37184,-14.59039 8.21994,-9.04193 14.1794,-23.01582 h -22.19384 l -69.25298,-218.23937 h 68.63649 l 42.33268,176.72868 46.03165,-176.72868 z"
       style="font-weight:bold;font-size:400.722px;font-family:'FiraCode Nerd Font Mono';-inkscape-font-specification:'FiraCode Nerd Font Mono, Bold';fill:#e43a25;fill-opacity:1;stroke-width:4.88783"
       id="path5404" /></g><g
     id="g21283"
     transform="matrix(1.3260751,0,0,1.3260751,594.6403,165.60932)"><g
       id="g6163"
       style="fill:#e43a25;fill-opacity:1"
       transform="matrix(0.64861555,0,0,0.64861555,-591.6294,38.897549)"><path
         d="m -1583.4067,504.97688 q 30.6193,0 51.9911,8.21994 21.5774,8.01444 39.4557,22.81033 l -33.0852,39.8667 q -11.7134,-9.65843 -25.8928,-15.20689 -14.1794,-5.75395 -30.8248,-5.75395 -17.8784,0 -32.6743,10.27492 -14.7958,10.06942 -23.6323,32.05776 -8.8364,21.78283 -8.8364,56.71757 0,51.37462 18.4949,74.80144 18.7003,23.22132 47.8811,23.22132 21.3718,0 35.5512,-8.01444 14.1794,-8.01444 26.0983,-17.46736 l 30.6193,39.0447 q -16.0289,15.82338 -39.4557,27.1258 -23.4268,11.30241 -56.5121,11.30241 -38.6337,0 -68.6365,-17.05637 -29.7972,-17.26187 -46.8536,-50.55262 -16.8509,-33.49625 -16.8509,-82.40488 0,-47.67564 17.4674,-80.96639 17.6729,-33.29075 47.8811,-50.55262 30.2083,-17.46737 67.8145,-17.46737 z"
         style="font-weight:bold;font-size:400.722px;font-family:'FiraCode Nerd Font Mono';-inkscape-font-specification:'FiraCode Nerd Font Mono, Bold';fill:#e43a25;fill-opacity:1;stroke-width:4.88783"
         id="path5406" /><path
         d="m -1390.238,485.66003 v 114.66814 q 27.3313,-28.76979 64.1156,-28.76979 29.1807,0 44.5931,17.05637 15.4124,17.05638 15.4124,48.08664 v 160.2888 h -64.9375 V 654.78526 q 0,-19.72786 -4.521,-27.5368 -4.3154,-7.80894 -16.4398,-7.80894 -10.275,0 -19.7279,7.19245 -9.2474,6.98694 -18.4949,19.31685 v 151.04137 h -64.9375 V 492.03048 Z"
         style="font-weight:bold;font-size:400.722px;font-family:'FiraCode Nerd Font Mono';-inkscape-font-specification:'FiraCode Nerd Font Mono, Bold';fill:#e43a25;fill-opacity:1;stroke-width:4.88783"
         id="path5408" /><path
         d="m -1024.8615,734.10766 q 0,12.32991 3.288,17.87836 3.4934,5.54846 11.0969,8.42544 l -13.3574,42.74368 q -19.3169,-1.84949 -32.6743,-8.42544 -13.1519,-6.78145 -20.7553,-20.34434 -12.5354,15.00138 -32.0578,22.39933 -19.5223,7.19244 -39.8667,7.19244 -33.7017,0 -53.8406,-19.11135 -19.9333,-19.31686 -19.9333,-49.52513 0,-35.55123 27.7423,-54.86809 27.9477,-19.31685 78.5004,-19.31685 h 29.3862 v -8.21994 q 0,-33.49625 -43.1546,-33.49625 -10.4804,0 -26.9203,3.08248 -16.4399,2.87698 -32.8798,8.42543 l -15.0014,-43.15467 q 21.1664,-8.01444 43.9767,-12.12441 23.0158,-4.10997 41.0997,-4.10997 48.7031,0 71.9245,19.93335 23.4268,19.72785 23.4268,57.12857 z m -101.9273,23.42682 q 10.4805,0 21.9884,-6.16495 11.5079,-6.37045 17.4673,-17.87837 v -35.34573 h -16.0288 q -27.1258,0 -39.8667,8.42544 -12.7409,8.21993 -12.7409,24.24881 0,12.53541 7.6034,19.72785 7.8089,6.98695 21.5773,6.98695 z"
         style="font-weight:bold;font-size:400.722px;font-family:'FiraCode Nerd Font Mono';-inkscape-font-specification:'FiraCode Nerd Font Mono, Bold';fill:#e43a25;fill-opacity:1;stroke-width:4.88783"
         id="path5410" /><path
         d="M -961.97881,796.99019 V 578.75083 h 56.71757 l 4.52097,25.27631 q 14.59039,-16.43988 30.82476,-24.45432 16.23438,-8.01444 36.98973,-8.01444 27.94779,0 43.97667,17.05637 16.02887,17.05638 16.02887,48.08664 v 160.2888 h -64.93751 V 655.40175 q 0,-20.13885 -4.52096,-27.94779 -4.31547,-8.01444 -16.43988,-8.01444 -10.27492,0 -19.72785,6.57595 -9.24743,6.57595 -18.49486,18.28936 v 152.68536 z"
         style="font-weight:bold;font-size:400.722px;font-family:'FiraCode Nerd Font Mono';-inkscape-font-specification:'FiraCode Nerd Font Mono, Bold';fill:#e43a25;fill-opacity:1;stroke-width:4.88783"
         id="path5412" /><path
         d="m -521.59544,543.81609 15.20688,47.67564 q -11.50791,4.52097 -26.92029,6.57595 -15.41239,2.05499 -35.96223,2.05499 20.54984,8.83643 31.23576,21.98833 10.89142,12.9464 10.89142,34.11274 0,21.16635 -11.30242,37.81172 -11.30241,16.43988 -32.05776,25.89281 -20.75534,9.45292 -49.11413,9.45292 -13.56289,0 -25.27631,-2.46598 -3.49347,1.84949 -5.34296,5.34296 -1.84948,3.49348 -1.84948,7.19245 0,5.13746 4.10997,9.24743 4.31547,4.10997 19.93335,4.10997 h 35.75673 q 25.48181,0 43.97667,8.21994 18.70036,8.21993 28.97528,22.39933 10.27492,14.17939 10.27492,32.46875 0,33.49625 -29.38628,52.81311 -29.38628,19.31685 -87.33684,19.31685 -41.92168,0 -64.93751,-8.63093 -22.81033,-8.42544 -31.85226,-24.24882 -8.83643,-15.61788 -8.83643,-37.19522 h 57.53956 q 0,9.45293 3.69897,15.41238 3.90448,6.16496 14.5904,9.04193 10.89141,2.87698 31.44126,2.87698 20.75534,0 31.64676,-3.28797 10.89142,-3.28798 14.79589,-9.04194 4.10997,-5.54845 4.10997,-12.5354 0,-9.65843 -7.60344,-15.61788 -7.60345,-5.95946 -24.04332,-5.95946 h -34.72924 q -35.34574,0 -51.37462,-12.9464 -16.02888,-13.1519 -16.02888,-30.61927 0,-12.12441 6.37046,-23.01583 6.57595,-10.89142 18.28936,-18.28936 -20.96084,-11.09692 -30.00278,-26.0983 -9.04193,-15.20689 -9.04193,-36.37323 0,-24.65981 12.53541,-42.33268 12.5354,-17.87837 34.52374,-27.53679 22.19383,-9.65843 50.55262,-9.65843 24.45431,0.411 42.53818,-3.28798 18.08386,-3.90447 32.46875,-10.48042 14.3849,-6.78145 27.5368,-14.38489 z m -100.89974,70.28047 q -15.41239,0 -24.45432,9.86393 -9.04193,9.65842 -9.04193,26.7148 0,18.08386 9.24743,27.74229 9.24743,9.65843 24.24882,9.65843 33.29075,0 33.29075,-38.22272 0,-35.75673 -33.29075,-35.75673 z"
         style="font-weight:bold;font-size:400.722px;font-family:'FiraCode Nerd Font Mono';-inkscape-font-specification:'FiraCode Nerd Font Mono, Bold';fill:#e43a25;fill-opacity:1;stroke-width:4.88783"
         id="path5414" /><path
         d="m -412.47552,706.77636 q 3.28798,26.7148 17.46737,38.42822 14.17939,11.50791 34.93474,11.50791 15.00138,0 28.97528,-4.93196 13.97389,-4.93197 26.9203,-13.15191 l 26.0983,35.34574 q -15.41239,13.1519 -37.40072,21.57734 -21.78284,8.42543 -49.73063,8.42543 -37.40071,0 -62.67702,-14.79589 -25.27631,-15.00138 -38.01722,-41.09969 -12.7409,-26.0983 -12.7409,-60.00554 0,-32.26326 12.32991,-58.56706 12.3299,-26.5093 35.96222,-42.12719 23.83783,-15.82338 58.15607,-15.82338 31.23576,0 54.04609,13.3574 23.01583,13.3574 35.55123,38.42821 12.74091,25.07081 12.74091,60.21105 0,5.54846 -0.411,11.91891 -0.2055,6.37045 -0.82199,11.30241 z m 40.2777,-91.65231 q -17.46737,0 -28.15329,12.53541 -10.68592,12.53541 -12.9464,40.0722 h 80.14439 q -0.2055,-23.83782 -9.24743,-38.22271 -9.04193,-14.3849 -29.79727,-14.3849 z"
         style="font-weight:bold;font-size:400.722px;font-family:'FiraCode Nerd Font Mono';-inkscape-font-specification:'FiraCode Nerd Font Mono, Bold';fill:#e43a25;fill-opacity:1;stroke-width:4.88783"
         id="path5416" /></g><text
       xml:space="preserve"
       style="font-style:normal;font-variant:normal;font-weight:bold;font-stretch:normal;font-size:263.082px;font-family:'FiraCode Nerd Font Mono';-inkscape-font-specification:'FiraCode Nerd Font Mono, Bold';font-variant-ligatures:normal;font-variant-caps:normal;font-variant-numeric:normal;font-variant-east-asian:normal;fill:#e43a25;fill-opacity:1;stroke-width:1.21317"
       x="-761.48712"
       y="556.70111"
       id="text21222"><tspan
         sodipodi:role="line"
         id="tspan21220"
         style="stroke-width:1.21317"
         x="-761.48712"
         y="556.70111">s</tspan></text></g></g></svg>
